<?xml version="1.0" encoding="UTF-8" ?>
<!DOCTYPE svg PUBLIC "-//W3C//DTD SVG 1.1//EN" "http://www.w3.org/Graphics/SVG/1.1/DTD/svg11.dtd">
<svg width="400pt" height="400pt" viewBox="0 0 400 400" version="1.1" xmlns="http://www.w3.org/2000/svg">

<path fill="#050708" d=" M 175.87 29.43 C 203.61 24.79 232.79 29.40 257.78 42.30 C 269.77 48.38 280.67 56.46 290.35 65.76 C 290.57 62.38 289.39 59.21 288.26 56.10 C 286.89 51.61 292.22 47.69 296.25 49.72 C 300.64 52.67 303.27 57.50 305.80 62.01 C 306.83 59.90 308.36 57.48 311.02 57.51 C 314.52 57.01 316.69 60.30 318.56 62.69 C 323.21 68.80 325.52 76.26 326.75 83.74 C 333.12 92.71 336.60 104.08 334.59 115.06 C 333.85 120.76 331.34 125.98 328.75 131.04 C 329.84 136.35 331.08 141.76 330.12 147.20 C 329.44 150.78 329.78 154.42 330.01 158.02 C 330.43 181.11 324.72 204.31 313.42 224.47 C 298.98 250.59 275.45 271.52 247.84 282.84 C 220.26 294.26 188.80 295.91 160.15 287.54 C 130.95 279.14 104.97 260.26 87.80 235.21 C 71.87 212.18 63.59 183.97 64.61 155.98 C 65.22 148.60 63.09 141.08 65.29 133.82 C 66.67 130.85 64.29 128.31 63.21 125.70 C 57.38 113.42 58.44 98.19 65.90 86.84 C 66.82 85.34 68.04 83.92 68.25 82.11 C 69.40 73.44 73.20 64.94 79.43 58.75 C 82.74 55.85 87.65 58.20 88.94 62.00 C 90.87 57.82 93.47 53.90 96.88 50.78 C 99.38 48.24 104.28 48.98 105.80 52.25 C 107.15 54.23 106.28 56.61 105.41 58.58 C 104.36 60.79 104.37 63.27 104.26 65.66 C 123.77 46.75 148.98 33.68 175.87 29.43 Z" />
<path fill="#ffdb4c" d=" M 186.85 53.39 C 214.48 50.60 243.25 58.64 264.90 76.17 C 269.76 80.24 274.70 84.35 278.42 89.54 C 276.13 91.86 273.90 94.25 271.67 96.62 C 256.02 78.50 233.74 66.14 209.90 63.23 C 177.71 58.72 143.87 71.84 122.92 96.65 C 120.67 94.38 118.52 92.01 116.41 89.61 C 134.15 69.16 159.85 55.78 186.85 53.39 Z" />
<path fill="#ffdb4c" d=" M 91.16 78.05 C 90.78 69.41 94.66 61.02 100.67 54.95 C 98.48 59.66 97.96 65.02 99.27 70.05 C 101.96 81.53 109.63 91.00 117.59 99.37 C 142.40 124.23 167.27 149.04 192.08 173.90 C 188.93 172.47 185.47 171.15 181.96 171.93 C 174.88 173.03 169.44 179.14 167.67 185.86 C 165.32 193.69 167.71 202.23 172.27 208.79 C 178.51 217.88 187.84 224.19 197.18 229.75 C 207.97 223.61 218.76 215.97 224.69 204.74 C 229.70 195.50 228.79 182.55 220.43 175.53 C 215.30 171.02 207.54 170.66 201.78 174.20 C 214.38 162.36 226.30 149.79 238.64 137.67 C 251.13 125.16 263.66 112.67 276.14 100.14 C 283.73 92.50 290.78 83.85 294.34 73.54 C 296.45 67.55 296.37 60.89 294.17 54.93 C 300.01 61.48 304.04 69.98 303.50 78.91 C 302.94 90.88 295.69 101.28 287.45 109.46 C 274.25 122.68 260.93 135.80 247.91 149.20 C 262.82 135.68 277.91 122.35 292.76 108.77 C 301.64 100.08 310.11 89.95 312.86 77.53 C 314.03 72.82 313.20 67.97 312.09 63.34 C 317.06 69.84 320.90 77.61 320.83 85.97 C 321.20 94.37 318.00 102.54 313.28 109.36 C 307.97 117.22 300.58 123.29 293.59 129.56 C 275.84 145.75 257.71 161.53 240.15 177.93 C 259.81 162.25 279.83 147.03 299.49 131.35 C 308.68 123.53 317.59 114.41 321.53 102.73 C 323.37 97.72 322.90 92.28 322.33 87.09 C 326.38 93.69 329.69 101.12 329.45 109.03 C 329.57 116.65 326.47 123.84 322.50 130.18 C 324.83 137.82 325.89 146.29 322.60 153.85 C 318.02 165.54 307.35 173.03 297.16 179.51 C 298.16 185.05 298.25 191.08 295.43 196.13 C 292.00 202.58 285.87 207.10 279.45 210.31 C 263.26 218.28 246.99 226.08 230.80 234.07 C 225.49 236.67 220.60 240.82 218.51 246.49 C 217.25 249.49 217.26 252.79 217.22 255.99 C 239.71 251.53 260.35 238.55 274.38 220.45 C 276.24 217.72 279.49 216.71 282.28 215.25 C 286.46 213.21 290.29 210.53 293.82 207.52 C 282.34 230.74 262.50 249.82 238.45 259.61 C 213.17 270.02 183.96 270.27 158.37 260.77 C 133.34 251.48 112.63 231.85 101.13 207.86 C 106.30 212.76 113.13 215.15 118.95 218.97 C 133.23 237.72 154.20 251.52 177.44 256.01 C 177.63 250.69 176.40 245.15 172.90 241.01 C 169.89 237.22 165.55 234.87 161.27 232.81 C 147.56 226.20 133.93 219.46 120.25 212.82 C 112.84 209.39 105.18 205.38 100.51 198.42 C 96.66 192.95 95.81 185.86 97.51 179.47 C 87.86 173.53 78.03 166.59 72.96 156.11 C 68.95 148.18 68.87 138.67 72.28 130.52 C 68.20 124.07 64.94 116.76 65.18 108.97 C 64.89 101.34 67.95 94.14 71.85 87.75 C 71.45 93.17 71.31 98.76 73.43 103.88 C 78.04 116.00 87.60 125.41 97.55 133.35 C 116.64 148.30 135.70 163.30 154.90 178.10 C 135.76 160.92 116.67 143.67 97.53 126.49 C 87.18 117.60 76.83 107.00 74.24 93.07 C 71.93 82.38 76.01 71.40 82.68 63.09 C 80.09 70.68 81.11 79.04 84.62 86.17 C 90.20 97.92 99.66 107.22 109.37 115.64 C 121.81 127.02 134.55 138.07 146.99 149.45 C 133.93 136.02 120.52 122.94 107.33 109.64 C 98.85 101.25 91.14 90.46 91.16 78.05 Z" />
<path fill="#ffdb4c" d=" M 175.85 89.32 C 191.62 86.60 209.37 89.33 221.54 100.40 C 229.93 107.76 235.11 117.94 238.79 128.30 C 234.21 119.07 228.41 110.15 220.13 103.82 C 207.93 94.08 191.28 90.55 176.08 93.61 C 171.80 94.11 169.00 97.71 165.04 99.00 C 160.94 100.55 156.95 103.27 155.32 107.52 C 153.76 111.10 154.77 115.09 155.76 118.67 C 156.91 116.82 157.92 114.67 160.00 113.70 C 164.07 114.00 167.97 116.91 168.94 120.98 C 170.41 126.60 167.79 132.12 165.52 137.13 C 165.44 131.97 167.11 125.21 162.51 121.48 C 159.07 120.00 158.00 124.90 156.92 127.13 C 153.11 123.42 149.76 118.59 150.11 113.01 C 149.83 105.78 154.36 98.82 161.06 96.11 C 166.21 94.25 170.26 90.03 175.85 89.32 Z" />
<path fill="#ffdb4c" d=" M 184.47 97.87 C 191.84 98.36 199.75 100.42 204.74 106.23 C 207.68 109.50 208.60 114.55 206.44 118.48 C 204.87 121.92 201.53 123.91 198.60 126.05 C 200.76 123.65 202.82 120.28 201.04 117.06 C 196.80 109.37 183.84 109.74 179.97 117.65 C 179.03 115.95 178.05 114.28 177.00 112.65 C 180.45 112.22 184.20 110.95 185.79 107.56 C 187.64 104.40 186.36 100.67 184.47 97.87 Z" />
<path fill="#ffdb4c" d=" M 174.50 99.54 C 177.12 98.56 180.53 100.20 180.66 103.18 C 181.50 107.00 176.31 110.19 173.37 107.47 C 170.44 105.52 171.27 100.67 174.50 99.54 Z" />
<path fill="#ffdb4c" d=" M 158.40 110.75 C 160.22 105.99 164.26 102.82 168.61 100.49 C 168.34 103.15 168.43 105.85 169.54 108.34 C 165.63 107.86 161.73 108.63 158.40 110.75 Z" />
<path fill="#050708" d=" M 74.86 133.95 C 78.50 137.72 82.10 141.59 86.28 144.79 C 111.60 164.64 136.91 184.51 162.24 204.35 C 142.36 191.79 122.77 178.78 103.00 166.05 C 91.06 158.29 78.28 148.56 74.86 133.95 Z" />
<path fill="#050708" d=" M 295.66 154.70 C 303.94 147.99 312.98 142.03 319.78 133.70 C 318.32 140.81 314.16 147.04 309.14 152.15 C 303.53 158.05 296.83 162.75 289.97 167.09 C 270.73 179.64 251.37 192.01 232.20 204.68 C 253.14 187.76 274.53 171.40 295.66 154.70 Z" />
<path fill="#ffffff" d=" M 197.79 180.90 C 201.35 177.55 206.19 175.24 211.17 175.82 C 214.18 176.36 217.79 177.29 219.00 180.48 C 215.31 180.05 211.46 178.70 207.81 180.09 C 203.99 181.26 201.30 184.37 198.17 186.66 C 195.74 183.65 192.93 180.99 190.36 178.10 C 192.96 178.68 195.37 179.81 197.79 180.90 Z" />
<path fill="#050708" d=" M 99.27 180.85 C 121.79 194.89 143.82 209.72 166.20 224.00 C 150.74 216.47 135.42 208.66 119.97 201.12 C 111.33 196.69 102.43 190.51 99.27 180.85 Z" />
<path fill="#050708" d=" M 228.72 223.95 C 250.73 209.37 272.98 195.16 295.11 180.76 C 292.56 190.29 283.72 196.18 275.55 200.65 C 259.95 208.44 244.25 216.02 228.72 223.95 Z" />
<path fill="#ffffff" d=" M 172.45 199.14 C 174.75 200.21 175.88 202.56 177.37 204.47 C 179.95 208.12 183.06 211.39 185.49 215.16 C 182.70 214.90 180.88 212.71 179.18 210.76 C 176.30 207.31 173.75 203.47 172.45 199.14 Z" />
<path fill="#ffffff" d=" M 215.31 205.28 C 217.36 202.92 218.89 199.87 221.91 198.59 C 220.89 204.06 216.89 208.32 213.33 212.35 C 210.65 214.79 208.16 218.15 204.29 218.55 C 207.67 213.90 211.80 209.84 215.31 205.28 Z" />
<path fill="#050708" d=" M 176.28 234.66 C 176.85 234.66 178.00 234.66 178.57 234.66 C 178.58 236.05 178.58 237.43 178.59 238.82 C 178.00 238.82 176.84 238.83 176.26 238.83 C 176.26 237.43 176.27 236.05 176.28 234.66 Z" />
<path fill="#050708" d=" M 180.42 234.67 C 184.78 234.67 189.14 234.67 193.50 234.67 C 193.50 236.05 193.50 237.43 193.51 238.81 C 189.14 238.81 184.77 238.81 180.40 238.82 C 180.41 237.43 180.42 236.05 180.42 234.67 Z" />
<path fill="#050708" d=" M 195.82 234.72 C 196.74 234.69 197.66 234.66 198.58 234.64 C 198.57 236.05 198.57 237.46 198.57 238.88 C 197.64 238.82 196.72 238.76 195.80 238.70 C 195.80 237.37 195.81 236.04 195.82 234.72 Z" />
<path fill="#050708" d=" M 215.61 234.67 C 216.54 234.66 217.47 234.66 218.40 234.67 C 218.40 236.05 218.41 237.43 218.41 238.82 C 217.47 238.81 216.53 238.81 215.59 238.82 C 215.59 237.43 215.60 236.05 215.61 234.67 Z" />
<path fill="#050708" d=" M 200.82 234.69 C 205.14 234.66 209.47 234.67 213.80 234.67 C 213.80 235.70 213.82 237.78 213.82 238.81 C 209.48 238.81 205.14 238.83 200.80 238.77 C 200.81 237.75 200.82 235.71 200.82 234.69 Z" />
<path fill="#050708" d=" M 177.39 240.45 C 184.34 245.95 185.91 255.34 186.56 263.65 C 184.80 263.46 183.05 263.28 181.29 263.10 C 181.51 255.38 180.86 247.48 177.39 240.45 Z" />
<path fill="#050708" d=" M 208.12 263.66 C 208.51 255.34 210.35 246.23 216.94 240.51 C 213.87 247.64 212.98 255.36 213.37 263.07 C 211.62 263.27 209.87 263.46 208.12 263.66 Z" />
<path fill="#050708" d=" M 194.54 257.81 C 195.21 255.29 194.22 250.14 198.10 250.33 C 200.03 252.56 199.60 255.62 199.72 258.35 C 197.99 258.16 196.27 257.98 194.54 257.81 Z" />
</svg>
